<svg width="271" height="36" viewBox="0 0 271 36" fill="none" xmlns="http://www.w3.org/2000/svg">
<path d="M258.928 9.2666C261.027 9.26661 262.822 9.37564 264.306 9.59668C265.832 9.82253 267.123 10.2815 268.136 11.0127C269.179 11.7658 269.908 12.8643 270.354 14.2451C270.794 15.6112 271 17.3775 271 19.5117C271 21.7086 270.794 23.5207 270.354 24.917C269.911 26.3269 269.185 27.4485 268.141 28.2148L268.136 28.2188C267.122 28.9503 265.831 29.4031 264.306 29.6182L264.307 29.6191C262.823 29.8403 261.028 29.9482 258.928 29.9482C256.838 29.9482 255.043 29.8401 253.55 29.6191V29.6182C252.024 29.4031 250.732 28.9505 249.719 28.2188L249.715 28.2148C248.671 27.4484 247.943 26.327 247.5 24.917C247.061 23.5207 246.855 21.7085 246.855 19.5117C246.855 17.3775 247.062 15.6112 247.502 14.2451C247.947 12.8644 248.676 11.7658 249.719 11.0127C250.732 10.2814 252.023 9.82157 253.55 9.5957C255.043 9.37478 256.838 9.2666 258.928 9.2666ZM256.245 29.1309C256.302 29.134 256.359 29.1377 256.416 29.1406C256.359 29.1377 256.302 29.134 256.245 29.1309ZM255.696 29.0957C255.723 29.0976 255.75 29.0997 255.777 29.1016C255.75 29.0997 255.723 29.0976 255.696 29.0957ZM255.05 29.0439C255.112 29.0496 255.174 29.0552 255.237 29.0605C255.174 29.0552 255.112 29.0496 255.05 29.0439ZM254.501 28.9883C254.57 28.9959 254.639 29.0035 254.709 29.0107C254.639 29.0035 254.57 28.9959 254.501 28.9883ZM265.067 28.7217C265.105 28.7134 265.142 28.7059 265.179 28.6973C265.142 28.7059 265.105 28.7134 265.067 28.7217ZM265.491 28.6172C265.541 28.6038 265.59 28.5921 265.639 28.5781C265.59 28.5921 265.541 28.6038 265.491 28.6172ZM265.93 28.4863C265.98 28.4697 266.031 28.4539 266.08 28.4365C266.031 28.4539 265.98 28.4697 265.93 28.4863ZM266.359 28.3311C266.401 28.3145 266.443 28.2984 266.484 28.2812C266.443 28.2984 266.401 28.3145 266.359 28.3311ZM266.742 28.166C266.79 28.1436 266.838 28.1219 266.885 28.0986C266.838 28.1219 266.79 28.1436 266.742 28.166ZM248.839 26.127C249.006 26.4114 249.191 26.6717 249.395 26.9072C249.191 26.6717 249.006 26.4114 248.839 26.127ZM268.655 26.666C268.666 26.652 268.677 26.6382 268.688 26.624C268.677 26.6382 268.666 26.652 268.655 26.666ZM258.928 26.6348L258.741 26.6328C258.803 26.633 258.866 26.6357 258.929 26.6357C259.115 26.6357 259.296 26.6303 259.475 26.6289C259.296 26.6303 259.114 26.6348 258.928 26.6348ZM255.585 26.5293C256.084 26.5666 256.636 26.5941 257.241 26.6113C256.636 26.5941 256.084 26.5665 255.585 26.5293ZM265.999 25.3779C265.971 25.4063 265.944 25.436 265.915 25.4629C265.39 25.9335 264.571 26.2497 263.457 26.4102L263.024 26.4619C262.509 26.518 261.919 26.5602 261.255 26.5889C262.114 26.5519 262.848 26.4939 263.458 26.4111C264.572 26.2507 265.391 25.9345 265.916 25.4639C265.945 25.437 265.971 25.4063 265.999 25.3779ZM251.127 24.1602C251.315 24.7025 251.585 25.1376 251.94 25.4639C252.465 25.9345 253.285 26.2507 254.398 26.4111C254.739 26.4569 255.116 26.4936 255.53 26.5254C255.285 26.5066 255.053 26.4856 254.834 26.4619L254.397 26.4102C253.284 26.2497 252.465 25.9334 251.94 25.4629C251.585 25.1368 251.315 24.7022 251.127 24.1602ZM268.999 26.1562C269.009 26.1397 269.019 26.1231 269.028 26.1064C269.019 26.1231 269.009 26.1397 268.999 26.1562ZM258.928 13.3271C257.037 13.3271 255.567 13.4075 254.505 13.5605C253.458 13.7114 252.807 13.9939 252.439 14.3232L252.434 14.3291C252.075 14.6437 251.791 15.1571 251.649 15.9658C251.51 16.8282 251.435 18.0054 251.435 19.5117C251.435 21.0722 251.509 22.2932 251.649 23.1895L251.71 23.4932C251.865 24.1661 252.125 24.6172 252.443 24.9102C252.811 25.2382 253.461 25.5195 254.505 25.6699H254.504C255.569 25.8127 257.039 25.8877 258.928 25.8877C260.828 25.8877 262.297 25.8125 263.351 25.6699C264.394 25.5196 265.043 25.238 265.411 24.9102C265.772 24.5775 266.056 24.0391 266.188 23.1973L266.189 23.1895C266.34 22.2962 266.42 21.0755 266.42 19.5117C266.42 18.0019 266.34 16.8251 266.19 15.9658L266.188 15.958C266.057 15.1517 265.778 14.6413 265.422 14.3291L265.416 14.3232C265.049 13.9939 264.398 13.7114 263.351 13.5605L263.35 13.5596C262.299 13.4068 260.83 13.3272 258.928 13.3271ZM248.372 25.1465C248.413 25.2548 248.457 25.3606 248.502 25.4639C248.457 25.3606 248.413 25.2548 248.372 25.1465ZM247.649 21.1592C247.723 22.4483 247.888 23.5427 248.144 24.4443C247.889 23.5426 247.722 22.4482 247.649 21.1592ZM269.727 24.3936C269.741 24.3425 269.757 24.2915 269.771 24.2393C269.757 24.2915 269.741 24.3425 269.727 24.3936ZM266.844 23.7324C266.875 23.5984 266.905 23.4594 266.928 23.3145C266.976 23.0272 267.016 22.711 267.05 22.3662C267.016 22.7106 266.975 23.0264 266.927 23.3135L266.862 23.6592C266.857 23.6839 266.849 23.7081 266.844 23.7324ZM269.841 23.9434C269.858 23.8689 269.876 23.7936 269.892 23.7168C269.876 23.7936 269.858 23.8689 269.841 23.9434ZM269.94 23.4648C269.959 23.3673 269.976 23.268 269.993 23.167C269.976 23.268 269.959 23.3673 269.94 23.4648ZM270.035 22.8955C270.05 22.793 270.065 22.6889 270.078 22.583C270.065 22.6889 270.05 22.793 270.035 22.8955ZM270.115 22.2744C270.126 22.1768 270.135 22.0778 270.145 21.9775C270.135 22.0778 270.126 22.1768 270.115 22.2744ZM266.86 15.498C266.885 15.6073 266.908 15.7202 266.927 15.8369C267.087 16.7567 267.168 17.9823 267.168 19.5117L267.164 20.0898C267.156 20.7219 267.133 21.2987 267.096 21.8193C267.143 21.144 267.169 20.3745 267.169 19.5117C267.169 17.9825 267.088 16.7576 266.928 15.8379C266.909 15.7208 266.886 15.6077 266.86 15.498ZM270.175 21.6309C270.181 21.5567 270.185 21.4818 270.19 21.4062C270.185 21.4818 270.181 21.5567 270.175 21.6309ZM248.564 13.585C248.433 13.8618 248.316 14.158 248.214 14.4736C247.913 15.4063 247.725 16.5669 247.646 17.9551C247.725 16.5673 247.913 15.407 248.214 14.4746C248.316 14.159 248.433 13.8627 248.564 13.5859V13.585ZM270.19 17.6689C270.184 17.5824 270.179 17.4968 270.172 17.4121C270.179 17.4968 270.184 17.5824 270.19 17.6689ZM270.14 17.0674C270.129 16.9617 270.118 16.8575 270.106 16.7549C270.118 16.8575 270.129 16.9617 270.14 17.0674ZM270.07 16.4766C270.057 16.3737 270.043 16.2724 270.027 16.1729C270.043 16.2724 270.057 16.3737 270.07 16.4766ZM269.98 15.8896C269.964 15.7963 269.948 15.7045 269.93 15.6143C269.948 15.7045 269.964 15.7963 269.98 15.8896ZM266.701 14.9619C266.746 15.0833 266.785 15.2106 266.82 15.3438C266.785 15.2106 266.746 15.0833 266.701 14.9619ZM269.869 15.3291C269.851 15.2487 269.833 15.1696 269.813 15.0918C269.833 15.1696 269.851 15.2487 269.869 15.3291ZM269.75 14.8477C269.738 14.8032 269.728 14.7583 269.716 14.7148L269.651 14.5059C269.687 14.6164 269.718 14.7308 269.75 14.8477ZM265.915 13.7676C266.198 14.0159 266.425 14.3325 266.599 14.7148C266.425 14.333 266.199 14.0166 265.916 13.7686C265.851 13.7099 265.781 13.6534 265.706 13.5996C265.78 13.6532 265.85 13.7092 265.915 13.7676ZM250.157 11.6182C249.546 12.0594 249.049 12.6474 248.666 13.3818L248.773 13.1855C249.141 12.5421 249.603 12.0202 250.158 11.6191C250.178 11.6047 250.198 11.5904 250.219 11.5762C250.198 11.5904 250.177 11.6037 250.157 11.6182ZM269.129 13.2695C269.123 13.259 269.117 13.2487 269.111 13.2383C269.117 13.2487 269.123 13.259 269.129 13.2695ZM269.05 13.1299C269.031 13.0976 269.012 13.0658 268.992 13.0342C269.012 13.0658 269.031 13.0976 269.05 13.1299ZM268.933 12.9395C268.918 12.9162 268.903 12.893 268.888 12.8701C268.903 12.893 268.918 12.9162 268.933 12.9395ZM268.821 12.7715C268.791 12.7274 268.759 12.6843 268.728 12.6416C268.759 12.6843 268.791 12.7274 268.821 12.7715ZM268.707 12.6143C268.678 12.5759 268.649 12.5382 268.619 12.501C268.649 12.5382 268.678 12.5759 268.707 12.6143ZM268.448 12.2979C268.423 12.2696 268.398 12.2414 268.372 12.2139C268.398 12.2414 268.423 12.2696 268.448 12.2979ZM268.161 12.002C268.138 11.9798 268.114 11.9581 268.09 11.9365C268.114 11.9581 268.138 11.9798 268.161 12.002ZM267.698 11.6191C267.753 11.659 267.808 11.6999 267.861 11.7422L267.698 11.6182C267.686 11.6095 267.673 11.6014 267.661 11.5928C267.674 11.6016 267.686 11.6103 267.698 11.6191ZM250.517 11.3799C250.486 11.3987 250.456 11.4192 250.426 11.4385C250.456 11.4192 250.486 11.3987 250.517 11.3799ZM267.408 11.4238C267.391 11.4132 267.375 11.4021 267.357 11.3916C267.375 11.4021 267.391 11.4132 267.408 11.4238ZM250.867 11.1816C250.833 11.1993 250.801 11.2183 250.768 11.2363C250.801 11.2183 250.833 11.1992 250.867 11.1816ZM267.071 11.2275C267.047 11.2142 267.022 11.2006 266.997 11.1875C267.022 11.2006 267.047 11.2142 267.071 11.2275ZM251.259 10.9941C251.142 11.0459 251.029 11.1016 250.918 11.1582C251.029 11.1016 251.142 11.0458 251.259 10.9941ZM266.906 11.1426C266.808 11.0928 266.707 11.044 266.604 10.998C266.707 11.0439 266.808 11.0929 266.906 11.1426ZM251.671 10.8271C251.557 10.8695 251.446 10.9154 251.337 10.9619C251.446 10.9154 251.557 10.8695 251.671 10.8271ZM266.493 10.9512C266.395 10.9098 266.296 10.8691 266.193 10.8311C266.296 10.8691 266.395 10.9098 266.493 10.9512ZM252.112 10.6787C251.998 10.714 251.885 10.751 251.775 10.79C251.885 10.751 251.998 10.714 252.112 10.6787ZM266.052 10.7812C265.955 10.7472 265.856 10.7138 265.756 10.6826C265.856 10.7137 265.955 10.7473 266.052 10.7812ZM252.591 10.5459C252.466 10.5772 252.343 10.6102 252.223 10.6455C252.343 10.6103 252.466 10.5772 252.591 10.5459ZM265.613 10.6406C265.502 10.6082 265.388 10.5769 265.272 10.5479C265.388 10.5769 265.502 10.6082 265.613 10.6406ZM253.074 10.4375C252.943 10.4638 252.814 10.4922 252.688 10.5225C252.814 10.4923 252.943 10.4638 253.074 10.4375ZM265.156 10.5195C265.037 10.4911 264.915 10.4643 264.791 10.4395C264.915 10.4643 265.037 10.4911 265.156 10.5195ZM258.928 10.0137C256.861 10.0137 255.105 10.1211 253.659 10.335L253.391 10.377C253.324 10.3884 253.258 10.4027 253.192 10.415C253.345 10.3863 253.5 10.3595 253.659 10.3359C255.105 10.122 256.862 10.0146 258.929 10.0146C259.695 10.0147 260.417 10.0285 261.096 10.0576C260.647 10.0384 260.179 10.0251 259.691 10.0186L258.928 10.0137ZM263.074 10.1963C263.468 10.2361 263.843 10.2831 264.197 10.3359C264.352 10.3588 264.502 10.3844 264.65 10.4121C264.589 10.4006 264.527 10.3877 264.464 10.377L264.196 10.335C263.842 10.2821 263.468 10.2361 263.074 10.1963ZM263.032 10.1924C262.853 10.1745 262.67 10.1577 262.482 10.1426C262.67 10.1577 262.853 10.1745 263.032 10.1924ZM262.391 10.1348C262.224 10.1217 262.053 10.1105 261.88 10.0996C262.053 10.1105 262.224 10.1217 262.391 10.1348ZM261.73 10.0908C261.562 10.0809 261.392 10.0714 261.218 10.0635C261.392 10.0714 261.562 10.0809 261.73 10.0908ZM266.736 24.1152C266.754 24.0604 266.773 24.0052 266.789 23.9482C266.773 24.0052 266.754 24.0605 266.736 24.1152ZM268.584 12.457C268.548 12.4132 268.512 12.3704 268.475 12.3281C268.512 12.3704 268.548 12.4132 268.584 12.457Z" fill="#1A1D20"/>
<path d="M232.274 9.62012H243.663V13.6484H232.274V22.1748C232.274 23.3408 232.381 24.1243 232.547 24.5879L232.601 24.7109C232.741 24.987 232.978 25.1771 233.379 25.2871C233.956 25.4422 234.882 25.5352 236.201 25.5352C237.379 25.5352 238.279 25.4971 238.913 25.4268H238.915C239.508 25.362 239.817 25.2026 239.972 25.0518C240.125 24.891 240.297 24.5458 240.374 23.8711C240.455 23.1644 240.497 22.1434 240.497 20.7949V20.0479H244.724V20.7949C244.724 22.5903 244.609 24.0677 244.37 25.208L244.371 25.209C244.139 26.3689 243.698 27.3332 242.988 28.0176H242.989C242.295 28.6973 241.354 29.1097 240.236 29.3096L240.237 29.3105C239.17 29.5034 237.819 29.5947 236.201 29.5947C234.277 29.5947 232.679 29.4054 231.438 28.9961L231.432 28.9941C230.136 28.5546 229.151 27.764 228.538 26.6172L228.533 26.6084C227.952 25.4841 227.695 23.9839 227.695 22.1748V4.56641H232.274V9.62012ZM228.442 22.1748C228.442 23.9287 228.694 25.2924 229.197 26.2656C229.711 27.2282 230.537 27.9021 231.672 28.2871C232.807 28.6613 234.317 28.8486 236.201 28.8486C236.401 28.8486 236.596 28.8466 236.786 28.8438C236.596 28.8466 236.401 28.8477 236.202 28.8477C234.317 28.8477 232.807 28.6605 231.672 28.2861C230.537 27.9011 229.712 27.2272 229.198 26.2646C228.695 25.2914 228.443 23.9278 228.443 22.1738V5.31348H228.442V22.1748ZM241.646 28.0703C241.21 28.2994 240.698 28.4693 240.105 28.5752C239.355 28.7107 238.441 28.7956 237.364 28.8301C237.899 28.8129 238.394 28.7842 238.848 28.7422C239.154 28.7138 239.443 28.6794 239.713 28.6396C239.848 28.6198 239.979 28.5989 240.104 28.5762C240.697 28.4703 241.21 28.2996 241.646 28.0703ZM243.367 26.0322C243.349 26.0803 243.333 26.1283 243.314 26.1748C243.333 26.1283 243.349 26.0803 243.367 26.0322ZM238.996 26.1689C238.981 26.1706 238.966 26.1712 238.951 26.1729C238.966 26.1712 238.982 26.1706 238.997 26.1689C239.008 26.1677 239.019 26.1653 239.03 26.1641C239.019 26.1654 239.008 26.1677 238.996 26.1689ZM239.542 26.0723C239.506 26.0814 239.469 26.0905 239.431 26.0986C239.469 26.0905 239.506 26.0814 239.542 26.0723ZM240.899 24.9219C240.798 25.1918 240.666 25.4094 240.506 25.5752C240.403 25.678 240.28 25.7662 240.14 25.8438C240.28 25.7661 240.404 25.6782 240.507 25.5752C240.667 25.4096 240.798 25.1916 240.899 24.9219ZM243.792 24.1416C243.748 24.4727 243.698 24.7795 243.639 25.0615C243.636 25.0773 243.631 25.0928 243.628 25.1084C243.631 25.0931 243.636 25.0779 243.639 25.0625C243.698 24.7802 243.748 24.473 243.792 24.1416ZM241.237 21.7568C241.221 22.661 241.18 23.3937 241.116 23.9551C241.11 24.0072 241.103 24.0583 241.096 24.1084C241.103 24.0582 241.111 24.0073 241.117 23.9551C241.203 23.2065 241.245 22.1529 241.245 20.7949L241.237 21.7568Z" fill="#1A1D20"/>
<path d="M212.061 9.2666C214.16 9.26661 215.956 9.37461 217.439 9.5957L217.438 9.59668C218.965 9.82255 220.256 10.2815 221.269 11.0127C222.312 11.7658 223.041 12.8643 223.486 14.2451C223.927 15.6111 224.132 17.3768 224.132 19.5107C224.132 21.7078 223.926 23.5206 223.487 24.917C223.044 26.3269 222.317 27.4485 221.273 28.2148L221.269 28.2178C220.255 28.9495 218.964 29.4031 217.438 29.6182L217.439 29.6191C215.956 29.8402 214.16 29.9482 212.061 29.9482C209.971 29.9482 208.175 29.8391 206.682 29.6182C205.156 29.4031 203.865 28.9495 202.852 28.2178L202.848 28.2148C201.804 27.4484 201.076 26.327 200.633 24.917C200.194 23.5206 199.988 21.7078 199.988 19.5107C199.988 17.3767 200.194 15.6111 200.635 14.2451C201.08 12.8644 201.809 11.7658 202.852 11.0127C203.864 10.2815 205.155 9.82159 206.682 9.5957C208.175 9.37474 209.971 9.2666 212.061 9.2666ZM208.494 29.0703C208.526 29.0729 208.558 29.0766 208.591 29.0791C208.558 29.0766 208.526 29.0729 208.494 29.0703ZM205.171 28.5225C205.241 28.5443 205.311 28.5656 205.383 28.5859C205.311 28.5656 205.241 28.5443 205.171 28.5225ZM203.567 27.7988C203.628 27.8369 203.688 27.8748 203.751 27.9111C203.688 27.8748 203.628 27.8369 203.567 27.7988ZM202.62 27.0107C202.811 27.219 203.018 27.4067 203.239 27.5742C203.018 27.4066 202.811 27.2191 202.62 27.0107ZM220.301 19.5107C220.301 21.0937 220.22 22.3616 220.06 23.3135C219.91 24.2651 219.572 24.9816 219.048 25.4629C218.523 25.9335 217.704 26.2497 216.59 26.4102C215.487 26.5599 213.977 26.6348 212.061 26.6348C211.107 26.6348 210.253 26.6156 209.498 26.5781C210.253 26.6156 211.107 26.6348 212.061 26.6348C213.977 26.6348 215.488 26.5599 216.591 26.4102C217.704 26.2497 218.523 25.9343 219.048 25.4639C219.573 24.9826 219.911 24.2662 220.061 23.3145C220.221 22.3626 220.301 21.0946 220.301 19.5117V19.5107ZM202.186 26.4629C202.218 26.5106 202.252 26.5574 202.286 26.6035C202.252 26.5574 202.218 26.5106 202.186 26.4629ZM207.583 26.416C207.978 26.4677 208.422 26.5107 208.914 26.5439C208.422 26.5107 207.978 26.4677 207.583 26.416ZM201.456 25.0166C201.608 25.436 201.787 25.8181 201.994 26.1641C201.787 25.8181 201.608 25.436 201.456 25.0166ZM205.419 25.7207C205.673 25.8832 205.973 26.0211 206.319 26.1348C205.973 26.0212 205.673 25.8831 205.419 25.7207ZM212.061 13.3271C210.169 13.3271 208.699 13.4075 207.637 13.5605C206.59 13.7114 205.939 13.994 205.572 14.3232L205.565 14.3291C205.207 14.6437 204.922 15.1572 204.781 15.9658C204.641 16.8281 204.567 18.0047 204.567 19.5107C204.567 21.0715 204.642 22.2931 204.782 23.1895L204.842 23.4932C204.997 24.1662 205.258 24.6171 205.576 24.9102C205.944 25.2381 206.593 25.5195 207.637 25.6699L208.055 25.7207C209.075 25.8306 210.408 25.8877 212.061 25.8877C213.96 25.8877 215.43 25.8125 216.483 25.6699C217.527 25.5196 218.176 25.238 218.544 24.9102C218.905 24.5775 219.188 24.039 219.32 23.1973L219.322 23.1895C219.473 22.2961 219.553 21.0748 219.553 19.5107C219.553 18.0012 219.473 16.825 219.323 15.9658L219.321 15.958C219.19 15.1516 218.911 14.6413 218.555 14.3291L218.548 14.3232C218.181 13.994 217.53 13.7114 216.483 13.5605L216.481 13.5596C215.431 13.4068 213.962 13.3272 212.061 13.3271ZM204.423 24.5654C204.594 24.9237 204.811 25.2232 205.073 25.4639C205.101 25.4884 205.131 25.5095 205.16 25.5332C205.131 25.5094 205.101 25.4876 205.073 25.4629C204.811 25.2224 204.594 24.9234 204.423 24.5654ZM206.263 10.4248C205.059 10.6588 204.068 11.0566 203.29 11.6182C202.401 12.2599 201.754 13.2117 201.347 14.4736C200.94 15.7356 200.735 17.4147 200.735 19.5107C200.735 21.4017 200.892 22.9612 201.204 24.1885C200.892 22.9613 200.736 21.4023 200.736 19.5117C200.736 17.4157 200.94 15.7366 201.347 14.4746C201.754 13.2126 202.401 12.2599 203.29 11.6182C204.179 10.9765 205.346 10.5489 206.792 10.335L206.263 10.4248ZM204.26 24.1602C204.285 24.2335 204.312 24.3047 204.341 24.374C204.312 24.3047 204.285 24.2335 204.26 24.1602ZM219.904 15.1699C219.968 15.377 220.021 15.5991 220.06 15.8369C220.2 16.6418 220.279 17.6805 220.297 18.9521L220.286 18.4219C220.256 17.3891 220.181 16.5277 220.061 15.8379C220.022 15.5996 219.968 15.3773 219.904 15.1699ZM222.638 14.0869C222.686 14.2127 222.732 14.3419 222.774 14.4746C222.786 14.5107 222.794 14.5482 222.806 14.585C222.794 14.5479 222.786 14.51 222.774 14.4736C222.732 14.3413 222.686 14.2125 222.638 14.0869ZM218.459 13.3701C218.542 13.4135 218.62 13.4592 218.695 13.5068C218.62 13.4592 218.542 13.4135 218.459 13.3701ZM222.264 13.2744C222.246 13.2425 222.23 13.2101 222.212 13.1787C222.23 13.2101 222.246 13.2425 222.264 13.2744ZM221.152 11.873C221.304 12.0043 221.446 12.1469 221.581 12.2988C221.446 12.1469 221.304 12.0043 221.152 11.873ZM217.858 10.4258C218.976 10.643 219.911 11.0013 220.661 11.501C219.795 10.9242 218.685 10.5356 217.329 10.335L217.858 10.4258ZM212.061 10.0137C210.252 10.0137 208.681 10.096 207.349 10.2598L207.935 10.1943C209.135 10.074 210.511 10.0147 212.061 10.0146C212.574 10.0146 213.069 10.0201 213.543 10.0332C213.068 10.0201 212.574 10.0137 212.061 10.0137ZM214.262 10.0586C214.929 10.0877 215.555 10.131 216.138 10.1885C215.555 10.131 214.93 10.0878 214.262 10.0586Z" fill="#1A1D20"/>
<path d="M178.72 11.0156C178.899 10.8795 179.086 10.7503 179.281 10.6299L179.286 10.6279C180.076 10.1475 181.081 9.81358 182.269 9.60059L182.738 9.52148C183.871 9.34963 185.263 9.26758 186.903 9.26758C189.358 9.26758 191.357 9.50416 192.859 10.0117L193.149 10.1162C194.575 10.6619 195.639 11.5926 196.282 12.9121C196.943 14.2677 197.24 16.1098 197.24 18.3721V29.5957H192.646V18.3721C192.645 17.1437 192.539 16.203 192.351 15.5244C192.171 14.8772 191.88 14.4478 191.513 14.1709L191.507 14.167C191.129 13.8764 190.555 13.6467 189.723 13.5293L189.714 13.5273C188.855 13.3962 187.74 13.3272 186.357 13.3271C184.245 13.3271 182.644 13.5036 181.521 13.8281C180.405 14.151 179.724 14.6279 179.351 15.1904L179.348 15.1953C178.951 15.7854 178.72 16.6054 178.72 17.7148V29.5957H174.141V3.45996H178.72V11.0156ZM196.446 16.9355C196.477 17.3885 196.493 17.8677 196.493 18.373V18.3721C196.493 17.8671 196.477 17.3882 196.446 16.9355ZM193.361 17.2725C193.382 17.6155 193.393 17.982 193.393 18.3721V28.8486L193.394 18.373C193.394 17.9826 193.382 17.6158 193.361 17.2725ZM193.071 15.3242C193.148 15.5999 193.211 15.9073 193.26 16.2461C193.211 15.9077 193.149 15.6006 193.072 15.3252C193.045 15.2289 193.016 15.1354 192.984 15.0449L192.983 15.0439C193.015 15.1345 193.044 15.2278 193.071 15.3242ZM196.253 15.3242C196.265 15.3902 196.277 15.4569 196.288 15.5244C196.277 15.4569 196.265 15.3902 196.253 15.3242ZM192.642 14.3232C192.731 14.4653 192.811 14.6181 192.882 14.7822L192.766 14.5381C192.727 14.4638 192.685 14.3924 192.642 14.3232ZM195.925 14.0186C195.951 14.0953 195.976 14.1732 196 14.2529C195.976 14.1732 195.951 14.0953 195.925 14.0186ZM195.652 13.3311C195.682 13.3958 195.712 13.4618 195.74 13.5293C195.712 13.4618 195.682 13.3958 195.652 13.3311ZM186.903 10.0137C185.051 10.0137 183.551 10.1211 182.405 10.335C181.27 10.5382 180.36 10.8486 179.675 11.2656C179 11.6826 178.433 12.2012 177.973 12.8213V12.8223C178.433 12.2019 179.001 11.6827 179.676 11.2656C180.361 10.8486 181.271 10.5391 182.406 10.3359C183.552 10.122 185.051 10.0147 186.903 10.0146C187.206 10.0146 187.501 10.018 187.787 10.0254L186.903 10.0137ZM194.421 11.7031C194.763 11.9911 195.055 12.3234 195.301 12.6982C195.01 12.255 194.654 11.8716 194.229 11.5498L194.421 11.7031ZM192.622 10.7207C193.028 10.8568 193.399 11.0249 193.736 11.2227C193.399 11.0247 193.028 10.8559 192.622 10.7197C192.556 10.6973 192.488 10.6766 192.419 10.6553C192.488 10.6767 192.556 10.6982 192.622 10.7207ZM191.859 10.499C191.998 10.5334 192.132 10.5703 192.263 10.6084C192.132 10.5703 191.998 10.5334 191.859 10.499ZM189.409 10.1143C190.275 10.1894 191.049 10.3064 191.729 10.4668C190.849 10.2592 189.813 10.1234 188.622 10.0586L189.409 10.1143ZM174.889 4.20703H177.973V4.20605H174.889V4.20703Z" fill="#1A1D20"/>
<path d="M159.246 9.2666C161.346 9.2666 163.142 9.3746 164.625 9.5957L164.624 9.59668C166.15 9.82255 167.442 10.2814 168.455 11.0127C169.498 11.7658 170.227 12.8645 170.672 14.2451C171.112 15.6111 171.318 17.3767 171.318 19.5107C171.318 21.7077 171.113 23.5206 170.674 24.917C170.23 26.327 169.503 27.4484 168.459 28.2148L168.455 28.2178C167.442 28.9495 166.15 29.4031 164.624 29.6182L164.625 29.6191C163.142 29.8402 161.346 29.9482 159.246 29.9482C157.231 29.9482 155.497 29.796 154.058 29.4814C153.193 29.291 152.423 28.9604 151.754 28.4912V35.7559H147.174V9.62012H151.754V10.7178C152.423 10.2519 153.194 9.9237 154.059 9.7334C155.498 9.41886 157.231 9.26661 159.246 9.2666ZM147.922 35.0088H147.923V10.3672H151.006V10.3662H147.922V35.0088ZM157.884 29.1758C157.942 29.178 158 29.1787 158.059 29.1807C158 29.1787 157.942 29.178 157.884 29.1758ZM157.248 29.1436C157.352 29.1498 157.457 29.1549 157.563 29.1602C157.457 29.1549 157.352 29.1498 157.248 29.1436ZM156.705 29.1045C156.747 29.1079 156.789 29.1111 156.831 29.1143C156.789 29.111 156.747 29.1079 156.705 29.1045ZM156.111 29.0488C156.163 29.0543 156.215 29.0593 156.267 29.0645C156.215 29.0593 156.163 29.0543 156.111 29.0488ZM155.543 28.9805C155.607 28.989 155.671 28.9978 155.735 29.0059C155.671 28.9978 155.607 28.989 155.543 28.9805ZM155.05 28.9072C155.099 28.9152 155.148 28.924 155.197 28.9316C155.148 28.924 155.099 28.9152 155.05 28.9072ZM165.425 28.7129C165.447 28.7078 165.47 28.7044 165.492 28.6992C165.47 28.7044 165.447 28.7078 165.425 28.7129ZM165.771 28.627C165.839 28.6087 165.908 28.5918 165.975 28.5723C165.908 28.5918 165.839 28.6087 165.771 28.627ZM166.22 28.4951C166.279 28.4758 166.338 28.4578 166.396 28.4375C166.338 28.4578 166.279 28.4759 166.22 28.4951ZM166.674 28.332C166.719 28.3142 166.764 28.2969 166.809 28.2783C166.764 28.2969 166.719 28.3142 166.674 28.332ZM152.396 28.0225C152.498 28.0871 152.605 28.1463 152.713 28.2041C152.534 28.1087 152.362 28.0058 152.198 27.8916L152.396 28.0225ZM167.064 28.1641C167.109 28.1433 167.153 28.123 167.196 28.1016C167.153 28.123 167.109 28.1433 167.064 28.1641ZM151.229 27.0068C151.284 27.0714 151.339 27.135 151.396 27.1963C151.339 27.135 151.283 27.0714 151.229 27.0068ZM168.974 26.666C168.984 26.652 168.995 26.6382 169.006 26.624C168.995 26.6382 168.984 26.652 168.974 26.666ZM156.663 26.5654C157.175 26.5961 157.733 26.614 158.337 26.624C157.733 26.614 157.175 26.596 156.663 26.5654ZM166.233 25.4629C165.709 25.9334 164.89 26.2497 163.776 26.4102L163.343 26.4619C162.567 26.5463 161.622 26.5998 160.508 26.6221C161.838 26.5955 162.928 26.5254 163.776 26.4102C164.89 26.2497 165.71 25.9345 166.234 25.4639C166.271 25.43 166.305 25.3926 166.34 25.3564C166.305 25.3926 166.27 25.429 166.233 25.4629ZM169.317 26.1562C169.327 26.1397 169.337 26.1231 169.347 26.1064C169.337 26.1231 169.327 26.1397 169.317 26.1562ZM152.807 25.6709C153.094 25.8556 153.429 26.0094 153.812 26.1348C153.429 26.0095 153.094 25.8555 152.807 25.6709ZM159.246 13.3271C157.519 13.3272 156.146 13.4068 155.115 13.5596C154.109 13.7089 153.425 13.9916 152.988 14.3467L152.981 14.3516C152.568 14.6804 152.241 15.2046 152.055 16.0068C151.859 16.8477 151.754 18.0084 151.754 19.5107C151.754 21.0679 151.86 22.274 152.057 23.1494C152.245 23.9877 152.576 24.5393 152.993 24.8877C153.43 25.2408 154.112 25.5221 155.114 25.6709C156.147 25.8134 157.521 25.8877 159.246 25.8877C161.146 25.8877 162.615 25.8125 163.669 25.6699C164.712 25.5196 165.362 25.238 165.729 24.9102C166.091 24.5775 166.374 24.0392 166.507 23.1973L166.508 23.1895C166.659 22.2961 166.739 21.0748 166.739 19.5107C166.739 18.0012 166.659 16.825 166.509 15.9658L166.508 15.958C166.376 15.1517 166.096 14.6413 165.74 14.3291L165.734 14.3232C165.367 13.9939 164.716 13.7114 163.669 13.5605L163.668 13.5596C162.617 13.4068 161.148 13.3271 159.246 13.3271ZM169.712 25.3711C169.717 25.3591 169.722 25.347 169.727 25.335C169.722 25.347 169.717 25.3591 169.712 25.3711ZM151.646 24.2861C151.745 24.5061 151.861 24.7056 151.99 24.8877C151.861 24.7056 151.745 24.5061 151.646 24.2861ZM170.042 24.4053C170.057 24.3501 170.074 24.2948 170.089 24.2383C170.074 24.2948 170.057 24.3501 170.042 24.4053ZM167.162 23.7324C167.194 23.5984 167.223 23.4594 167.246 23.3145C167.277 23.1339 167.302 22.9415 167.327 22.7383C167.302 22.9413 167.276 23.1331 167.245 23.3135L167.181 23.6592C167.175 23.6839 167.168 23.708 167.162 23.7324ZM170.15 23.9834C170.171 23.8942 170.192 23.8035 170.211 23.7109C170.192 23.8035 170.171 23.8942 170.15 23.9834ZM170.262 23.4502C170.279 23.3589 170.296 23.2662 170.312 23.1719C170.296 23.2662 170.279 23.3589 170.262 23.4502ZM170.362 22.8389C170.372 22.7741 170.38 22.7087 170.389 22.6426C170.38 22.7087 170.372 22.7741 170.362 22.8389ZM170.435 22.2686C170.444 22.1824 170.452 22.0951 170.46 22.0068C170.452 22.0951 170.444 22.1824 170.435 22.2686ZM167.098 15.1904C167.159 15.3916 167.208 15.6071 167.245 15.8369C167.406 16.7566 167.486 17.9815 167.486 19.5107L167.482 20.0898C167.474 20.722 167.451 21.2987 167.414 21.8193C167.462 21.1439 167.487 20.3747 167.487 19.5117C167.487 17.9823 167.407 16.7577 167.246 15.8379C167.209 15.6076 167.159 15.3919 167.098 15.1904ZM170.493 21.6309C170.499 21.5545 170.504 21.4773 170.509 21.3994C170.504 21.4773 170.499 21.5545 170.493 21.6309ZM170.508 17.6592C170.502 17.577 170.498 17.4955 170.491 17.415C170.498 17.4955 170.502 17.577 170.508 17.6592ZM170.452 17.001C170.445 16.9273 170.437 16.8544 170.429 16.7822C170.437 16.8544 170.445 16.9273 170.452 17.001ZM170.386 16.4443C170.374 16.3545 170.361 16.266 170.348 16.1787C170.361 16.266 170.374 16.3545 170.386 16.4443ZM170.295 15.8672C170.28 15.784 170.266 15.7019 170.25 15.6211C170.266 15.7019 170.28 15.784 170.295 15.8672ZM170.187 15.3252C170.169 15.2485 170.152 15.173 170.134 15.0986C170.152 15.173 170.169 15.2485 170.187 15.3252ZM170.066 14.8398C170.055 14.7981 170.046 14.7558 170.034 14.7148L169.97 14.5059C170.004 14.614 170.035 14.7257 170.066 14.8398ZM166.498 14.043C166.551 14.106 166.601 14.1719 166.649 14.2412C166.601 14.1719 166.551 14.106 166.498 14.043ZM169.447 13.2695C169.442 13.259 169.435 13.2487 169.43 13.2383C169.435 13.2487 169.442 13.259 169.447 13.2695ZM169.368 13.1299C169.349 13.0976 169.33 13.0658 169.311 13.0342C169.33 13.0658 169.349 13.0976 169.368 13.1299ZM164.788 13.0352C164.866 13.0575 164.942 13.0808 165.016 13.1055C164.942 13.0809 164.866 13.0575 164.788 13.0352ZM169.135 12.7637C169.114 12.7336 169.092 12.7043 169.07 12.6748C169.092 12.7043 169.114 12.7336 169.135 12.7637ZM169.012 12.5957C168.989 12.5661 168.966 12.5368 168.943 12.5078C168.966 12.5368 168.989 12.5661 169.012 12.5957ZM159.246 10.0137C157.265 10.0137 155.589 10.1635 154.219 10.4629C152.859 10.7622 151.788 11.4301 151.007 12.4668V12.4688C151.788 11.4315 152.859 10.7634 154.219 10.4639C155.589 10.1644 157.266 10.0146 159.247 10.0146C159.764 10.0147 160.26 10.02 160.737 10.0332C160.5 10.0266 160.257 10.0219 160.01 10.0186L159.246 10.0137ZM168.9 12.4551C168.875 12.4235 168.849 12.3921 168.822 12.3613C168.849 12.3921 168.875 12.4235 168.9 12.4551ZM168.75 12.2783C168.736 12.2624 168.721 12.2472 168.706 12.2314C168.721 12.2472 168.736 12.2624 168.75 12.2783ZM167.374 11.2178C167.356 11.2082 167.338 11.1989 167.32 11.1895C167.338 11.1989 167.356 11.2082 167.374 11.2178ZM167.197 11.1289C167.107 11.0841 167.016 11.0397 166.922 10.998C167.016 11.0397 167.107 11.0841 167.197 11.1289ZM166.806 10.9492C166.711 10.9095 166.616 10.8697 166.518 10.833C166.616 10.8697 166.711 10.9095 166.806 10.9492ZM166.367 10.7803C166.27 10.7462 166.171 10.7119 166.07 10.6807C166.171 10.7119 166.27 10.7462 166.367 10.7803ZM165.936 10.6416C165.825 10.6094 165.713 10.5787 165.598 10.5498C165.713 10.5787 165.825 10.6094 165.936 10.6416ZM165.464 10.5176C165.35 10.4905 165.234 10.4642 165.115 10.4404C165.234 10.4642 165.35 10.4906 165.464 10.5176ZM164.961 10.4111C164.902 10.4001 164.843 10.3872 164.783 10.377L164.525 10.3359C164.674 10.358 164.819 10.3846 164.961 10.4111ZM164.442 10.3242C164.296 10.3029 164.146 10.2828 163.993 10.2637C164.146 10.2828 164.296 10.3029 164.442 10.3242ZM163.797 10.2412C163.685 10.2281 163.571 10.2141 163.455 10.2021C163.571 10.2141 163.685 10.2281 163.797 10.2412ZM163.25 10.1826C163.104 10.1686 162.954 10.1549 162.803 10.1426C162.954 10.1549 163.104 10.1686 163.25 10.1826ZM162.714 10.1357C162.544 10.1225 162.371 10.1107 162.194 10.0996C162.371 10.1107 162.544 10.1225 162.714 10.1357ZM162.051 10.0908C161.882 10.0809 161.711 10.0715 161.536 10.0635C161.711 10.0715 161.882 10.0809 162.051 10.0908ZM161.41 10.0576C161.203 10.0488 160.992 10.0413 160.777 10.0352C160.992 10.0413 161.203 10.0488 161.41 10.0576ZM167.055 24.1152C167.073 24.0604 167.091 24.0052 167.107 23.9482C167.091 24.0052 167.073 24.0605 167.055 24.1152Z" fill="#1A1D20"/>
<path d="M142.806 29.5957H138.227V3.45996H142.806V29.5957ZM138.975 4.20703H142.059V4.20605H138.975V4.20703Z" fill="#1A1D20"/>
<path d="M122.783 9.2666C125.179 9.26661 127.196 9.43481 128.818 9.78125C130.482 10.1364 131.809 10.8314 132.707 11.9277C133.632 13.0439 134.036 14.6063 134.036 16.4951V21.2041H115.452C115.487 22.1902 115.573 22.9806 115.706 23.585C115.859 24.277 116.147 24.7274 116.522 25.0146C116.92 25.3181 117.585 25.57 118.605 25.7012L119.016 25.7441C120.015 25.8387 121.295 25.8877 122.863 25.8877C124.483 25.8877 125.777 25.8556 126.75 25.793H126.751C127.729 25.7306 128.391 25.5974 128.79 25.4316C129.17 25.2678 129.357 25.063 129.449 24.8408C129.579 24.5291 129.665 24.0498 129.665 23.3613V22.6152H134.036V23.3613C134.036 24.7989 133.82 26.0184 133.326 26.959C132.837 27.9103 132.078 28.6074 131.078 29.0371C130.132 29.4439 128.963 29.684 127.599 29.7842C126.266 29.8933 124.686 29.9482 122.863 29.9482C120.776 29.9482 118.982 29.8397 117.489 29.6191C115.971 29.4041 114.685 28.9497 113.671 28.2178L113.663 28.2129C112.631 27.446 111.91 26.3245 111.468 24.917L111.467 24.9111C111.04 23.517 110.84 21.7066 110.84 19.5107C110.84 17.379 111.034 15.6173 111.45 14.2559L111.452 14.251C111.885 12.8707 112.602 11.7704 113.635 11.0156C114.637 10.2834 115.913 9.82199 117.419 9.5957H117.42C118.903 9.37461 120.694 9.2666 122.783 9.2666ZM119.301 29.0713C119.333 29.0739 119.365 29.0766 119.397 29.0791C119.365 29.0766 119.333 29.0739 119.301 29.0713ZM117.595 28.8809C117.794 28.9103 117.999 28.9365 118.21 28.9619C117.999 28.9365 117.795 28.9103 117.596 28.8809C117.56 28.8758 117.524 28.8686 117.488 28.8633C117.524 28.8686 117.559 28.8758 117.595 28.8809ZM114.387 27.7988C114.489 27.8638 114.595 27.9265 114.704 27.9863C114.595 27.9265 114.489 27.8638 114.387 27.7988ZM130.413 23.3613C130.413 24.0992 130.322 24.6875 130.14 25.126C129.958 25.5644 129.605 25.8965 129.08 26.1211C128.566 26.335 127.805 26.4739 126.799 26.5381C125.803 26.6023 124.491 26.6338 122.863 26.6338L122.864 26.6348C124.492 26.6348 125.804 26.6032 126.8 26.5391C127.806 26.4749 128.566 26.3359 129.08 26.1221C129.605 25.8975 129.959 25.5655 130.141 25.127C130.323 24.6885 130.413 24.1002 130.413 23.3623H133.288V23.3613H130.413ZM120.418 26.5869C121.14 26.6189 121.951 26.6336 122.852 26.6338C121.725 26.6336 120.738 26.6095 119.891 26.5596L120.418 26.5869ZM116.876 26.0488C117.328 26.2278 117.872 26.3603 118.511 26.4424C118.633 26.4568 118.76 26.4697 118.892 26.4824C118.76 26.4696 118.632 26.4558 118.51 26.4414C117.872 26.3594 117.328 26.2276 116.876 26.0488ZM112.575 25.6953C112.672 25.8965 112.776 26.0872 112.889 26.2676C112.777 26.0872 112.672 25.8965 112.575 25.6953ZM116.421 25.834C116.482 25.868 116.545 25.9011 116.61 25.9326C116.545 25.9011 116.482 25.8679 116.421 25.834ZM112.287 25.0039C112.327 25.1156 112.369 25.2246 112.413 25.3311C112.369 25.2246 112.327 25.1156 112.287 25.0039ZM115.432 24.8994C115.506 25.0176 115.585 25.1288 115.673 25.2314C115.585 25.1288 115.506 25.0176 115.432 24.8994ZM122.783 10.0137C120.716 10.0137 118.965 10.1211 117.53 10.335C116.106 10.5489 114.955 10.9765 114.077 11.6182C113.199 12.2599 112.561 13.2116 112.165 14.4736C111.78 15.7356 111.587 17.4147 111.587 19.5107C111.587 21.4011 111.739 22.9604 112.042 24.1875C111.739 22.9605 111.588 21.4017 111.588 19.5117C111.588 17.4156 111.781 15.7366 112.166 14.4746C112.562 13.2126 113.199 12.2599 114.077 11.6182C114.955 10.9764 116.107 10.5489 117.531 10.335C118.966 10.1211 120.717 10.0147 122.783 10.0146C123.366 10.0146 123.925 10.0238 124.459 10.0439C123.925 10.0238 123.367 10.0137 122.783 10.0137ZM115.115 24.2324C115.135 24.2887 115.156 24.3435 115.178 24.3975C115.156 24.3435 115.135 24.2887 115.115 24.2324ZM129.537 13.7549C129.778 13.988 129.952 14.265 130.06 14.5859C130.242 15.0886 130.332 15.7251 130.332 16.4951V18.0352H114.688V18.0361H130.333V16.4961C130.333 15.7262 130.242 15.0895 130.061 14.5869C129.953 14.2657 129.779 13.9882 129.537 13.7549ZM122.783 13.3271C121.052 13.3271 119.676 13.3904 118.647 13.5137L118.648 13.5146C117.644 13.6363 116.968 13.8659 116.551 14.1465L116.542 14.1523C116.16 14.402 115.877 14.7817 115.715 15.3545L115.654 15.6064C115.556 16.0613 115.489 16.6201 115.456 17.2881H129.585V16.4951C129.585 15.7769 129.499 15.2337 129.356 14.8398L129.351 14.8223C129.243 14.5011 129.033 14.2398 128.665 14.0332L128.66 14.0312L128.654 14.0283C128.271 13.8049 127.63 13.612 126.664 13.499H126.663C125.709 13.3863 124.419 13.3272 122.783 13.3271ZM128.017 12.9863C128.058 12.9973 128.099 13.009 128.139 13.0205C128.099 13.0091 128.058 12.9973 128.017 12.9863ZM127.068 12.7988C127.104 12.8039 127.139 12.8091 127.174 12.8145C127.139 12.8091 127.104 12.8039 127.068 12.7988ZM123.959 12.5918C124.351 12.5996 124.721 12.612 125.067 12.6279C124.721 12.612 124.351 12.5996 123.959 12.5918ZM131.663 11.9131C131.745 11.9867 131.822 12.0641 131.897 12.1426C131.822 12.0637 131.744 11.986 131.662 11.9121L131.663 11.9131ZM130.314 11.0449C130.755 11.2467 131.147 11.4852 131.487 11.7627L131.303 11.6191C131.008 11.4015 130.678 11.2112 130.314 11.0449ZM129.566 10.7539C129.777 10.8226 129.978 10.8981 130.17 10.9805C129.978 10.8981 129.777 10.8226 129.566 10.7539ZM129.021 10.5957C129.156 10.6298 129.286 10.6662 129.414 10.7051C129.286 10.6662 129.156 10.6298 129.021 10.5957ZM126.027 10.1377C127.008 10.2206 127.886 10.3459 128.663 10.5117C128.737 10.5276 128.81 10.5443 128.883 10.5615C128.81 10.5442 128.737 10.5267 128.662 10.5107C127.886 10.3449 127.007 10.2206 126.027 10.1377Z" fill="#1A1D20"/>
<path d="M67.2412 6.30078H62.8955C61.3767 6.30078 60.3273 6.39788 59.6973 6.56445C59.1488 6.7095 58.8968 6.9585 58.7764 7.26172L58.7168 7.44043C58.5855 7.89164 58.503 8.5851 58.5029 9.56445V9.62012H67.2412V13.4561H58.5029V29.5957H53.9238V13.4561H50.8398V9.62012H53.9238V9.56445C53.9239 7.7483 54.2141 6.24403 54.8818 5.13672L54.8848 5.13086C55.5737 4.0097 56.634 3.26138 57.9951 2.86426L57.9971 2.86328C59.3103 2.48361 60.956 2.30471 62.9111 2.30469H67.2412V6.30078ZM54.6709 28.8486H54.6719V12.71H54.6709V28.8486ZM62.9111 3.05176C60.9945 3.05178 59.4258 3.22813 58.2051 3.58105C56.995 3.93401 56.1007 4.58128 55.5225 5.52246C54.9551 6.46356 54.671 7.81086 54.6709 9.56445V10.3672H51.5869V12.709H51.5879V10.3682H54.6719V9.56543C54.6719 7.81149 54.9559 6.46362 55.5234 5.52246C56.1017 4.58139 56.9961 3.93496 58.2061 3.58203C59.4268 3.2291 60.9954 3.05178 62.9121 3.05176H62.9111ZM57.7559 10.3682H66.4932V10.3672H57.7559V10.3682Z" fill="#1A1D20"/>
<path d="M75.1846 29.5957H70.6055V10.6475H75.1846V29.5957ZM71.3525 28.8486H71.3535V11.3936H71.3525V28.8486ZM75.1846 8.0332H70.6055V3.45996H75.1846V8.0332ZM71.3525 7.28711H71.3535V4.20703L71.3525 4.20605V7.28711Z" fill="#1A1D20"/>
<path d="M111.3 9.43457L100.94 19.5156L111.3 29.5967H104.991L104.772 29.3799L94.8262 19.5156L104.772 9.65137L104.991 9.43457H111.3ZM105.299 10.1816L105.298 10.1826H109.459L99.8662 19.5166L109.458 28.8496H109.461L99.8691 19.5156L109.461 10.1816H105.299Z" fill="#1A1D20"/>
<path d="M84.6895 9.65137L94.6357 19.5156L84.6895 29.3799L84.4707 29.5967H78.1621L88.5215 19.5156L78.1621 9.43457H84.4707L84.6895 9.65137ZM80.002 10.1826H84.1602L93.5713 19.5166L84.1611 28.8496H84.1621L93.5742 19.5156L84.1621 10.1816H80.001L80.002 10.1826Z" fill="#FDC101"/>
<path d="M47.8466 0L45.9223 5.02309L44.0466 9.9189H24.373L25.3172 7.45555L25.866 6.02359C27.2562 2.39545 30.7394 0 34.6248 0H47.8466Z" fill="#FDC101"/>
<path d="M35.2103 12.624L32.5014 20.3606L31.5722 23.012H15.2977L12.3033 31.5601H0L2.99434 23.012L4.1615 19.6803L4.36766 19.0916C5.72423 15.2177 9.38063 12.624 13.4852 12.624H35.2103Z" fill="#FDC101"/>
<path d="M20.7651 4.95477C20.7651 7.69586 18.5424 9.9189 15.7995 9.9189C13.0567 9.9189 10.834 7.69586 10.834 4.95477C10.834 2.21367 12.8955 0.156447 15.4959 0H16.1032C18.7045 0.156447 20.7651 2.31485 20.7651 4.95477Z" fill="#191D20"/>
</svg>
